HIERARCHY
ROOT Hips
{
  OFFSET 263.056 91.6644 -274.608
  CHANNELS 6 Xposition Yposition Zposition Zrotation Xrotation Yrotation
  JOINT LeftUpLeg
  {
    OFFSET 8.64259 1.95398 -2.38835
    CHANNELS 3 Zrotation Xrotation Yrotation
    JOINT LeftLeg
    {
      OFFSET 43.7702 0 0
      CHANNELS 3 Zrotation Xrotation Yrotation
      JOINT LeftFoot
      {
        OFFSET 40.6238 0 0
        CHANNELS 3 Zrotation Xrotation Yrotation
        JOINT LeftToeBase
        {
          OFFSET 12.7242 0 0
          CHANNELS 3 Zrotation Xrotation Yrotation
          End Site
          {
            OFFSET 0 0 0
          }
        }
      }
    }
  }
  JOINT RightUpLeg
  {
    OFFSET -8.2249 1.95398 -2.59336
    CHANNELS 3 Zrotation Xrotation Yrotation
    JOINT RightLeg
    {
      OFFSET 43.5653 0 0
      CHANNELS 3 Zrotation Xrotation Yrotation
      JOINT RightFoot
      {
        OFFSET 40.6238 0 0
        CHANNELS 3 Zrotation Xrotation Yrotation
        JOINT RightToeBase
        {
          OFFSET 12.7242 0 0
          CHANNELS 3 Zrotation Xrotation Yrotation
          End Site
          {
            OFFSET 0 0 0
          }
        }
      }
    }
  }
  JOINT Spine
  {
    OFFSET 0.165834 0.87714 6.61349
    CHANNELS 3 Zrotation Xrotation Yrotation
    JOINT Spine1
    {
      OFFSET 7.38963 1.71661e-005 0
      CHANNELS 3 Zrotation Xrotation Yrotation
      JOINT Spine2
      {
        OFFSET 11.9445 1.14441e-005 0
        CHANNELS 3 Zrotation Xrotation Yrotation
        JOINT Spine3
        {
          OFFSET 14.7254 4.19617e-005 0
          CHANNELS 3 Zrotation Xrotation Yrotation
          JOINT Spine4
          {
            OFFSET 10.9679 0 0
            CHANNELS 3 Zrotation Xrotation Yrotation
            JOINT RightShoulder
            {
              OFFSET 2.46616 -1.6653 3.69651
              CHANNELS 3 Zrotation Xrotation Yrotation
              JOINT RightArm
              {
                OFFSET 13.0012 0 0
                CHANNELS 3 Zrotation Xrotation Yrotation
                JOINT RightForeArm
                {
                  OFFSET 28.7848 1.52588e-005 0
                  CHANNELS 3 Zrotation Xrotation Yrotation
                  JOINT RightHand
                  {
                    OFFSET 26.5688 1.52588e-005 0
                    CHANNELS 3 Zrotation Xrotation Yrotation
                    End Site
                    {
                      OFFSET 0 0 0
                    }
                  }
                }
              }
            }
            JOINT LeftShoulder
            {
              OFFSET 2.38034 -1.29275 -3.7523
              CHANNELS 3 Zrotation Xrotation Yrotation
              JOINT LeftArm
              {
                OFFSET 16.3182 6.10352e-005 0
                CHANNELS 3 Zrotation Xrotation Yrotation
                JOINT LeftForeArm
                {
                  OFFSET 27.0901 0 0
                  CHANNELS 3 Zrotation Xrotation Yrotation
                  JOINT LeftHand
                  {
                    OFFSET 24.5451 1.52588e-005 0
                    CHANNELS 3 Zrotation Xrotation Yrotation
                    End Site
                    {
                      OFFSET 0 0 0
                    }
                  }
                }
              }
            }
            JOINT Neck
            {
              OFFSET 5.0226 -0.0266342 0
              CHANNELS 3 Zrotation Xrotation Yrotation
              JOINT Head
              {
                OFFSET 6.69364 2.86102e-005 0
                CHANNELS 3 Zrotation Xrotation Yrotation
                End Site
                {
                  OFFSET 0 0 0
                }
              }
            }
          }
        }
      }
    }
  }
}
MOTION
Frames:	17
Frame Time:	0.0416667
-23.423 94.3085 -85.6326 81.0806 83.6601 98.0663 -171.577 34.8224 90.2476 -84.5253 24.5905 -1.37618 39.4166 -14.5302 -1.30986 32.572 4.20647 1.02075 178.841 17.5974 95.7817 -37.7273 5.34586 -0.541568 71.6186 -4.32385 -2.27664 36.208 0.48899 11.5782 0.261935 7.87235 -90.0689 11.1374 0.489526 -0.181431 -0.533463 0.481071 -0.202818 -23.0699 0.521438 -0.0259203 -3.05728 0.52144 -0.0259271 79.0481 -48.8845 -117.754 22.6839 -9.93619 -1.9599 -6.10253 -3.81606 -65.0978 -17.9022 -0.924233 0.942151 -107.276 -42.2441 49.814 -30.4702 10.3684 12.3575 -2.4376 7.47595 -15.8121 18.7338 2.3559 8.63915 19.4235 0.430072 1.47935 -3.36786 -0.055678 2.40817 
-21.7044 102.022 -98.1569 93.706 81.4573 81.5411 -164.91 43.8959 84.506 -78.0786 20.9622 -3.25488 45.8311 -10.4386 2.0292 36.9204 9.04427 -0.752019 177.373 4.12927 88.496 -22.1761 -0.836212 -1.47114 46.1535 2.51484 2.68288 36.1984 0.476768 10.7524 0.777175 7.91334 -89.3363 11.0402 1.85493 1.14232 -0.629858 1.9034 1.05956 -23.1681 1.4259 1.64699 -3.15548 1.42589 1.64698 80.6559 -46.7006 -116.248 23.24 -8.86613 -3.65505 -10.8957 -0.617275 -82.3206 -18.7409 -1.10517 1.83733 -102.208 -40.9838 56.9137 -32.0888 7.94017 25.0012 -1.83804 5.01678 -14.7182 14.8338 1.61087 6.80386 14.652 -1.03291 0.759942 -0.742241 -1.18903 0.686158 
-20.9343 107.033 -110.639 87.5354 77.1681 88.3958 -162.855 46.8142 83.8404 -63.4131 23.5767 -6.34514 48.1097 -9.52595 2.1842 42.5241 14.6679 -3.85158 178.112 1.46856 88.8136 -14.1078 -3.16396 -1.74073 38.5792 3.93176 4.11402 30.6602 -0.233275 7.52104 1.19029 7.83678 -89.2829 11.1872 2.7024 1.1627 -0.481373 2.75096 1.04256 -23.0289 2.22804 1.92134 -3.01622 2.22805 1.92134 82.918 -42.2668 -114.517 22.3817 -9.46556 -6.27531 -18.1358 4.86987 -94.5652 -12.9254 -0.938943 3.35626 -100.174 -38.7498 59.0862 -35.7656 5.02385 35.4841 -1.44243 1.30121 -13.3228 12.0655 1.06534 4.73644 15.7979 -0.397743 2.99192 -2.01414 -1.22328 -1.22425 
-19.9448 108.082 -123.445 86.045 74.955 90.4232 -165.204 43.8607 85.2431 -46.238 19.1247 -7.58442 51.8339 -6.69049 2.51427 40.9369 13.5781 0.637904 178.693 2.21389 89.8015 -7.41341 2.53708 -2.18588 45.4422 2.57821 2.47981 28.9343 -0.632408 10.6289 1.27166 7.78701 -89.2516 11.2862 2.87923 1.20469 -0.382007 2.92946 1.07671 -22.9316 2.38407 2.01458 -2.91896 2.38408 2.01458 83.2613 -41.3254 -114.346 17.6678 -9.78009 -8.07343 -17.7949 8.60811 -104.43 -14.0129 -0.927642 2.63947 -98.4033 -35.6679 60.5755 -40.7032 3.90898 42.6878 -2.53004 -0.0700662 -11.0035 10.8837 0.89722 4.1272 16.2577 0.375419 3.92183 -3.31799 -0.733572 -2.58062 
-19.1713 104.235 -136.488 89.1364 74.8729 89.0545 -170.255 40.6196 87.6448 -32.4755 14.2927 -5.57469 57.7934 -1.23528 5.15688 41.3896 14.1919 1.45543 177.054 1.00888 89.8547 -6.53374 2.94448 0.59216 47.2267 2.30275 2.04036 34.9065 0.238443 12.3853 1.22547 7.85982 -89.4747 11.1464 2.68325 0.782874 -0.521915 2.71509 0.663934 -23.0728 2.32387 1.55343 -3.06019 2.32387 1.55343 83.3862 -42.7147 -113.574 11.9524 -7.39585 -9.54027 -15.0208 11.9212 -110.717 -12.8578 -0.904354 3.04835 -98.0149 -34.6412 60.7549 -42.0354 2.46857 46.5236 -2.20469 1.70386 -9.1226 8.05139 0.725322 4.55091 15.9617 1.17512 5.28753 -4.34521 -0.299194 -2.90244 
-18.0453 97.28 -148.834 99.027 74.641 79.4868 -173.954 37.2634 88.9233 -20.4692 11.2035 -2.49885 60.9673 2.97893 6.92986 43.4182 16.9614 4.25592 177.707 -2.41072 90.995 -21.7678 4.23285 -2.37525 65.7745 -3.67187 -1.79682 44.4234 1.71157 10.0764 1.224 8.16617 -89.4762 10.5334 2.67858 0.801853 -1.13498 2.71126 0.6831 -23.6857 2.31372 1.57013 -3.67306 2.31372 1.57012 83.3489 -43.609 -113.275 9.97415 -6.6915 -11.6234 -16.0146 10.3449 -111.452 -20.5532 -1.40333 3.04672 -97.7747 -36.0139 61.7984 -38.7397 2.75528 46.9497 -1.74629 2.59616 -7.8722 7.43012 0.69428 4.92616 15.6165 1.22734 5.59334 -3.39539 -0.342501 -3.65405 
-17.5747 92.6799 -163.595 93.0515 73.5756 87.1665 -174.754 37.8622 91.0099 -14.916 9.38436 -1.59716 62.8841 6.45905 9.92653 44.9945 19.2046 6.07885 176.807 -8.89013 90.6004 -25.5851 4.39516 -3.39313 72.6626 -5.8762 -2.9127 54.7054 3.219 9.67945 1.41575 7.98451 -89.5651 10.8996 3.01982 0.580501 -0.767931 3.04245 0.446902 -23.3257 2.70566 1.46184 -3.31309 2.70567 1.46183 80.6874 -44.8858 -116.967 12.3847 -9.1001 -9.78149 -19.5525 7.77603 -100.214 -20.943 -1.14154 1.54738 -98.5695 -40.5212 62.4545 -34.1802 2.62547 37.6718 -0.323664 1.14606 -6.61946 14.0618 1.81425 8.76348 17.8206 1.06325 5.21229 -5.55116 -0.418889 -4.18906 
-17.4459 90.9397 -180.85 87.5996 70.1089 92.3971 -172.53 36.9629 90.4974 -23.8972 8.31103 -2.85789 61.5196 5.59073 11.4705 46.2678 19.3842 0.250606 175.919 -7.7722 84.1289 -36.8151 -7.17451 -6.15393 52.8337 1.06357 1.23664 58.7866 3.76883 7.61669 1.73124 7.67044 -89.2297 11.5162 3.80455 1.14582 -0.149552 3.85128 0.97703 -22.7162 3.28419 2.23719 -2.70353 3.28419 2.23719 80.1823 -46.2581 -117.161 20.0539 -15.0845 -5.22346 -14.0289 -0.345943 -76.4879 -22.6966 -1.04971 0.594859 -99.4833 -43.2119 62.1409 -31.9975 1.71538 24.91 0.730911 -6.75492 -13.4989 10.2304 0.847545 4.22195 19.7189 0.381098 0.398129 -7.11681 0.310246 -1.93271 
-16.9103 89.1848 -197.882 86.7742 77.0598 92.0452 -170.266 36.1006 85.6081 -39.9073 14.1511 -4.9748 60.1588 3.44542 11.5631 42.3071 13.0354 -14.5664 178.937 1.07269 90.4889 -63.1629 -3.5151 -7.31384 31.8787 6.41619 7.14685 23.636 -0.910874 4.20102 0.770654 7.57901 -89.0114 11.6954 1.99604 1.76003 0.0246232 2.07155 1.67049 -22.5052 1.37501 2.27835 -2.4926 1.37501 2.27835 78.597 -48.0869 -118.778 25.5439 -16.8336 3.50644 -4.44371 -9.46828 -51.1986 -28.1877 -1.40867 1.02102 -105.013 -44.3155 54.2401 -28.611 5.17384 10.7577 -1.1716 -5.26724 -23.8512 14.2696 0.990721 2.86831 20.0248 0.197297 -1.23902 -8.79154 0.682197 -2.17727 
-17.229 90.3726 -212.964 99.974 83.9649 79.9061 -172.426 26.6473 83.5633 -45.4001 14.7814 -3.01364 66.9105 12.1228 14.4251 39.2484 10.187 -18.6778 178.779 23.661 87.3635 -93.064 4.68647 -5.21172 28.8598 4.74516 5.90728 19.3958 -1.43307 5.84296 0.00166581 7.71217 -89.0731 11.4384 0.43631 1.80441 -0.233694 0.515298 1.78346 -22.759 -0.126056 1.85212 -2.74637 -0.126059 1.85211 75.6901 -53.1937 -120.772 25.8645 -12.7795 15.3038 -2.61073 -12.6594 -38.4156 -19.279 -1.34194 3.49474 -106.111 -41.9217 51.3828 -23.019 3.50973 -5.36026 1.2988 -1.30782 -36.7533 20.5394 1.90168 5.41966 17.9463 -0.507494 -3.62495 -8.12768 0.623555 -1.23718 
-18.9354 97.1146 -227.386 126.227 83.5007 58.2841 -174.4 8.00752 87.672 -30.5685 18.2544 -0.34979 59.2069 3.01162 8.5194 42.1521 13.7121 -8.24674 171.474 42.3056 96.0874 -104.95 9.11377 -4.33973 35.6496 2.23032 2.77171 18.5414 -0.704814 0.45037 -0.543538 7.78732 -89.8087 11.3015 -0.992495 0.479704 -0.369171 -0.970421 0.522926 -22.9073 -1.09078 0.159219 -2.8946 -1.09079 0.159219 76.5031 -52.5649 -119.891 26.0545 -12.6322 25.1759 -6.35683 -21.958 -34.1031 -2.95326 -0.407409 3.81591 -103.828 -41.6093 54.7023 -21.4365 -0.215937 -11.0898 7.9903 1.78632 -57.3377 21.9149 2.13887 5.96367 14.7608 3.71746 -1.85472 -8.62468 4.0866 0.564253 
-19.1908 104.556 -242.038 174.752 85.6869 12.0718 -174.216 -3.05114 92.0297 -14.1636 21.888 0.381876 33.2989 -15.7986 -5.29206 31.2426 2.5819 2.43731 163.203 52.2113 104.293 -103.863 2.20523 -3.37512 41.2977 2.88795 2.96425 28.3271 -0.219438 2.83774 -1.19474 7.7822 -90.1669 11.3087 -2.45526 -0.08798 -0.359879 -2.45676 0.0202373 -22.9122 -2.31524 -0.822217 -2.89955 -2.31524 -0.822222 76.9512 -53.7699 -118.749 25.7342 -11.49 34.621 -7.85476 -22.1771 -34.7271 4.76919 0.078786 4.69389 -100.623 -38.906 58.4385 -18.8312 0.254887 -14.3352 14.5581 0.807855 -73.9707 41.6269 3.31356 4.26611 11.2755 4.67951 -3.69131 -6.25749 5.37519 2.70061 
-19.1084 109.158 -256.132 -149.135 84.3133 -25.017 -174.497 -2.22277 91.4032 -8.23765 21.3148 0.320584 40.3002 -11.1234 -2.1694 30.1072 1.51298 -0.233819 165.804 53.3649 103.026 -95.7665 0.145349 -2.55464 47.8166 1.84807 1.73657 33.7124 0.227255 3.6921 -1.38306 7.88611 -90.0414 11.1073 -2.77216 0.186476 -0.560711 -2.76125 0.308384 -23.1189 -2.69994 -0.65592 -3.10621 -2.69994 -0.655932 78.0153 -52.1382 -117.914 29.4949 -6.17016 41.9567 -5.59666 -16.1684 -31.5503 2.5426 -0.0326946 3.39623 -98.0501 -36.4385 61.5194 -17.5116 -2.57228 -17.9782 28.7094 -0.555103 -90.974 49.085 -3.32723 -11.2359 11.1479 3.66388 -5.33822 -6.84529 4.71634 3.66588 
-19.0329 109.465 -271.158 -131.866 83.625 -43.3316 -173.311 3.4494 88.9585 -6.51371 11.3603 -0.7598 47.8942 -9.69147 -1.98182 33.6545 5.49964 -2.24614 172.222 49.8952 98.5427 -82.1424 1.9661 -1.54728 51.5242 0.920875 0.920118 35.369 0.403224 0.973926 -1.44814 7.8339 -89.9922 11.2128 -2.87847 0.298494 -0.454985 -2.86253 0.424984 -23.0151 -2.83499 -0.58112 -3.00248 -2.83499 -0.581126 79.3841 -48.2667 -117.526 33.5122 -0.969084 46.8024 -6.01864 -11.5261 -31.1054 2.7922 0.0383114 3.20053 -96.8482 -36.0257 63.3709 -17.7803 -10.2308 -20.338 27.144 -12.2901 -101.775 47.5077 -15.238 -32.4614 10.9408 3.22009 -5.3679 -7.58155 4.2381 4.47373 
-19.163 104.013 -286.296 -138.597 81.7595 -36.9643 -172.525 2.99449 89.4024 -7.61109 4.41124 -1.64476 48.2117 -8.39813 -0.545837 41.5578 14.1643 -0.120231 176.312 43.4767 95.7512 -65.1804 2.2706 -0.358468 52.0011 1.34803 1.24284 31.9156 0.0616292 3.72456 -1.35922 8.05518 -89.9568 10.7699 -2.68659 0.334458 -0.89836 -2.66927 0.452452 -23.4554 -2.66283 -0.489026 -3.44278 -2.66283 -0.489032 77.9699 -49.1217 -119.259 32.2547 -0.645081 49.4428 -5.41598 -9.48926 -31.6544 2.50044 0.0352675 2.7356 -96.5083 -35.9449 63.9137 -20.2361 -22.1411 -20.8719 -178.852 -2.27749 -57.9382 -17.8359 9.32164 -66.8232 9.86939 2.07502 -5.52027 -6.44791 3.1699 3.70685 
-18.8151 95.0477 -300.837 -142.827 79.6244 -32.9719 -171.319 4.08997 88.4161 -30.1085 8.05266 -1.67527 66.881 10.9449 7.55439 40.1663 12.2025 -4.35745 178.933 37.9394 93.8087 -44.0254 2.29129 0.44257 48.8015 2.38192 2.16744 25.4599 0.0152474 0.994642 -1.34764 8.30489 -89.8771 10.2631 -2.62926 0.454857 -1.4054 -2.6067 0.570205 -23.9613 -2.64431 -0.356943 -3.94869 -2.64432 -0.356951 75.2526 -52.6333 -121.631 27.4197 1.81938 48.7968 -5.02978 -6.94317 -29.6567 -1.84108 -0.206168 2.23782 -95.7001 -35.2011 64.9819 -23.516 -33.0442 -15.0293 -178.696 -4.78649 -43.5432 -11.914 5.22022 -62.5187 12.4472 2.202 -6.44457 -6.70752 3.68418 4.25635 
-19.5714 90.4296 -317.183 -82.0896 79.3522 -89.9037 -170.894 8.53822 88.8255 -40.926 11.989 0.047185 71.137 19.7759 18.9874 50.6501 22.4825 -5.3557 -179.385 37.6744 91.8862 -14.0764 5.18549 2.21619 43.6592 3.32721 3.2422 -4.02591 5.83503 -21.4675 -1.53434 7.59087 -90.5093 11.6908 -3.28813 -0.623852 0.0242071 -3.31239 -0.478377 -22.5402 -2.94857 -1.58404 -2.52752 -2.94856 -1.58404 80.0817 -50.5867 -115.517 33.7994 2.38196 33.7892 -0.96117 -2.94507 -20.036 -7.5057 -0.53561 3.42771 -97.3136 -37.3812 63.1917 -22.5166 -36.3421 -10.0872 178.245 -7.87555 -31.8839 -10.6749 3.9437 -56.4711 28.4065 2.67777 -11.8988 -28.2989 3.36632 15.8809 
